<?xml version="1.0" encoding="utf-8"?>
<svg version="1.1" width="1920px" height="1083.41px" preserveAspectRatio="none" viewBox="92.025 31.034 125.591 82.969" xmlns="http://www.w3.org/2000/svg">
  <defs>
    <clipPath id="clippath0" transform="">
      <path d="M 0 1083.414 L 1920 1083.414 L 1920 0 L 0 0 Z" style="fill: none; clip-rule: nonzero;"/>
    </clipPath>
    <clipPath id="clippath1" transform="">
      <path d="M 0 1083.414 L 1920 1083.414 L 1920 0 L 0 0 Z" style="fill: none; clip-rule: nonzero;"/>
    </clipPath>
  </defs>
  <g transform="matrix(1 0 0 -1 0 1083.41)">
    <g style="clip-path: url(#clippath0);" transform="matrix(0.15897, 0, 0, 0.15897, 0, 911.184021)">
      <g transform="translate(1131.4027 668.1859)">
        <path d="M 0 0 C -4.98 9.02 -12.25 16.11 -21.82 21.24 C -31.39 26.38 -42.79 28.94 -56.02 28.94 C -80.6 28.94 -106.2 20.07 -132.8 2.34 L -132.8 26.61 L -165.48 26.61 L -165.48 -17.01 L -119.22 -17.01 C -112.12 -12.87 -105.06 -9.38 -98.03 -6.53 C -86.52 -1.87 -74.45 0.47 -61.85 0.47 C -51.11 0.47 -42.56 -2.41 -36.18 -8.17 C -33.33 -10.74 -31.1 -13.69 -29.49 -17.01 L 6.17 -17.01 C 4.97 -10.94 2.91 -5.27 0 0 M -217.34 -17.01 L -184.66 -17.01 L -184.66 69.617 L -217.34 69.617 Z M -217.34 69.617 M -250.1 3.97 C -261.22 12.84 -276.59 17.27 -296.19 17.27 L -335.668 17.27 L -266.78 69.617 L -306.69 69.617 L -372.28 17.27 L -359.68 -10.73 L -302.03 -10.73 C -291.27 -10.73 -282.62 -12.83 -276.12 -17.01 L -235.6 -17.01 C -238.16 -8.68 -243 -1.69 -250.1 3.97" style="fill: rgb(213, 0, 41); fill-opacity: 1;"/>
      </g>
    </g>
    <g style="clip-path: url(#clippath0);" transform="matrix(0.15897, 0, 0, 0.15897, 0, 911.184021)">
      <g transform="">
        <path d="M 1149.803 579.026 L 1182.483 579.026 L 1182.483 621.786 L 1149.803 621.786 Z M 1149.803 621.786 M 1149.803 651.176 L 1182.483 651.176 L 1182.483 737.803 L 1149.803 737.803 Z" style="fill: rgb(213, 0, 41); fill-opacity: 1;"/>
      </g>
      <g transform="translate(1262.7827 607.0359)">
        <path d="M 0 0 L -1.22 -2.75 L 0.02 0 Z M 4.69 30.99 L 4.69 27.78 C 5.02 28.82 5.02 29.95 4.69 30.99" style="fill: rgb(213, 0, 41); fill-opacity: 1;"/>
      </g>
      <g transform="translate(1300.1527 692.4559)">
        <path d="M 0 0 L 0 -104.32 C 0 -118.79 -2.49 -130.38 -7.47 -139.1 C -12.45 -147.81 -19.26 -154.31 -27.89 -158.59 C -36.53 -162.87 -47.23 -166.02 -59.99 -168.04 L -73.06 -138.87 C -63.41 -137.62 -55.75 -135.87 -50.07 -133.62 C -44.39 -131.36 -40.07 -128.01 -37.11 -123.58 C -34.16 -119.15 -32.68 -113.11 -32.68 -105.49 L -32.68 -74.79 L -37.37 -85.42 L -38.59 -88.17 L -38.64 -88.29 L -49.95 -113.43 L -53.22 -113.43 C -63.95 -113.43 -73.64 -111.01 -82.28 -106.19 C -90.91 -101.37 -97.68 -94.52 -102.58 -85.65 C -105.13 -81.04 -107.01 -76.05 -108.23 -70.67 L -79.47 -70.67 L -79.47 -76.69 C -79.47 -80.57 -75.45 -83.18 -71.92 -81.56 C -70.26 -80.8 -68.59 -80.01 -66.89 -79.18 C -63.93 -77.74 -60.92 -76.2 -57.87 -74.56 C -49.28 -69.94 -41.58 -65.13 -34.73 -60.41 C -33.69 -59.7 -33.01 -58.71 -32.68 -57.64 C -32.35 -56.6 -32.35 -55.47 -32.68 -54.43 C -33.01 -53.32 -33.72 -52.3 -34.8 -51.58 C -41.96 -46.77 -49.9 -41.9 -58.64 -37.2 C -62.26 -35.25 -65.83 -33.43 -69.32 -31.75 C -70.17 -31.33 -71.01 -30.93 -71.85 -30.53 C -72.25 -30.35 -72.65 -30.21 -73.05 -30.13 C -76.25 -29.45 -79.47 -31.9 -79.47 -35.38 L -79.47 -41.28 L -108.52 -41.28 C -107.24 -35.3 -105.07 -29.67 -102 -24.39 C -96.71 -15.28 -89.28 -8.16 -79.71 -3.03 C -70.14 2.11 -59.05 4.67 -46.45 4.67 C -35.71 4.67 -20.23 3.12 0 0" style="fill: rgb(213, 0, 41); fill-opacity: 1;"/>
      </g>
      <g transform="translate(1267.4728 634.8159)">
        <path d="M 0 0 L 0 3.21 C 0.33 2.17 0.33 1.04 0 0" style="fill: rgb(213, 0, 41); fill-opacity: 1;"/>
      </g>
      <g transform="translate(1137.3828 621.7859)">
        <path d="M 0 0 C -2.04 -12.02 -6.22 -26.28 -12.52 -42.76 L -169.4 -42.76 C -174.53 -42.76 -180.14 -41.51 -186.2 -39.02 C -190.1 -37.43 -193.75 -35.31 -197.13 -32.68 C -199.01 -31.22 -200.82 -29.6 -202.54 -27.82 C -207.25 -33.4 -212.84 -37.42 -219.31 -39.87 C -219.34 -39.88 -219.37 -39.89 -219.4 -39.9 C -224.72 -41.91 -230.62 -41.93 -235.97 -39.99 C -237.06 -39.59 -238.16 -39.15 -239.27 -38.67 C -244.3 -36.5 -248.87 -33.5 -252.96 -29.68 C -253.99 -28.73 -254.99 -27.72 -255.96 -26.65 C -266.69 -37.39 -279.61 -42.76 -294.7 -42.76 L -363.29 -42.76 C -363.41 -42.76 -363.52 -42.76 -363.62 -42.75 C -368.82 -42.7 -374.42 -41.42 -380.44 -38.91 C -386.59 -36.34 -392.07 -32.49 -396.89 -27.35 C -407.63 -37.62 -420.93 -42.76 -436.8 -42.76 L -464.58 -42.76 C -470.8 -42.76 -476.1 -45.17 -480.45 -49.99 C -484.81 -54.81 -486.98 -61.35 -486.98 -69.6 L -486.98 -97.37 L -519.66 -97.37 L -519.66 -64.46 C -519.66 -53.41 -516.98 -43.65 -511.61 -35.17 C -506.24 -26.69 -499.05 -20.82 -490.02 -17.55 L -490.02 -2.482 C -490.02 -1.517 -489.724 -0.576 -489.171 0.215 L -479.867 13.52 C -478.71 15.175 -478.737 17.385 -479.937 19.01 L -489.101 31.434 C -489.698 32.243 -490.02 33.222 -490.02 34.228 L -490.02 70.67 C -469.79 73.79 -454.31 75.34 -443.57 75.34 C -430.97 75.34 -419.88 72.78 -410.31 67.64 C -400.74 62.51 -393.32 55.39 -388.02 46.28 C -384.96 41 -382.78 35.37 -381.5 29.39 L -415.72 29.39 C -419.29 41.35 -428.18 47.34 -442.41 47.34 C -444.729 47.34 -447.084 47.213 -449.476 46.959 C -453.084 46.577 -454.904 42.399 -452.75 39.48 L -437.647 19.01 C -436.448 17.385 -436.419 15.175 -437.577 13.52 L -452.165 -7.348 C -454.346 -10.467 -452.114 -14.75 -448.308 -14.75 L -442.41 -14.75 C -433.23 -14.75 -426.18 -12.07 -421.28 -6.7 C -419.48 -4.74 -418.02 -2.5 -416.88 0 L -381.8 0 C -382.44 -2.78 -383.28 -5.44 -384.29 -7.98 C -379.47 -12.5 -372.48 -14.75 -363.29 -14.75 L -299.14 -14.75 C -294.63 -14.75 -290.27 -13.66 -286.07 -11.48 C -281.87 -9.3 -278.48 -6.31 -275.91 -2.5 C -275.36 -1.69 -274.88 -0.85 -274.45 0 L -241.09 0 C -241.68 -2.39 -242.44 -4.74 -243.35 -7.05 C -243.22 -7.2 -243.09 -7.34 -242.95 -7.49 C -239.42 -11.16 -233.46 -11.22 -230.03 -7.46 C -230.01 -7.44 -229.99 -7.42 -229.97 -7.4 C -228.02 -5.24 -226.5 -2.78 -225.4 0 L -191.03 0 C -191.26 -2.07 -191.6 -4.11 -192.04 -6.11 C -187.68 -11.48 -180.83 -14.35 -171.46 -14.71 L -171.46 0 L -138.78 0 L -138.78 -14.75 L -37.02 -14.75 C -35.55 -9.67 -34.43 -4.76 -33.66 0 Z" style="fill: rgb(213, 0, 41); fill-opacity: 1;"/>
      </g>
      <g transform="translate(1267.4728 634.8159)">
        <path d="M 0 0 L 0 3.21 C 0.33 2.17 0.33 1.04 0 0" style="fill: rgb(213, 0, 41); fill-opacity: 1;"/>
      </g>
      <g transform="translate(803.3625 511.2088)">
        <path d="M 0 0 L -8.477 19.995 L -16.987 0 L -19.517 0 L -34.556 35.41 L -31.479 35.41 L -17.295 1.982 L -9.058 21.362 L -15.039 35.41 L -11.963 35.41 L 2.222 1.982 L 16.44 35.41 L 17.568 35.41 L 2.563 0 Z" style="fill: rgb(213, 0, 41); fill-opacity: 1;"/>
      </g>
      <g transform="translate(848.0281 544.6365)">
        <path d="M 0 0 L -9.502 -22.422 L 9.502 -22.422 Z M 14.185 -33.428 L 9.98 -23.481 L -9.98 -23.481 L -14.185 -33.428 L -15.347 -33.428 L -0.308 1.982 L 2.222 1.982 L 17.261 -33.428 Z" style="fill: rgb(213, 0, 41); fill-opacity: 1;"/>
      </g>
      <g transform="translate(886.1995 520.3006)">
        <path d="M 0 0 L 3.145 0 C 3.145 -5.913 8.237 -8.545 13.398 -8.545 C 18.525 -8.545 23.687 -5.913 23.755 -1.265 C 23.755 6.904 -0.034 6.904 -0.034 18.013 L 0 18.696 C 0.444 23.994 6.733 27.275 12.988 27.275 C 18.936 27.275 24.849 24.302 25.601 17.227 L 22.456 17.192 C 22.456 23.413 17.568 25.942 12.544 25.942 C 7.178 25.942 1.846 23.14 1.846 19.004 C 1.846 10.254 25.601 10.767 25.601 -0.376 L 25.566 -1.094 C 25.088 -6.802 19.004 -9.707 12.886 -9.707 C 6.46 -9.707 0 -6.494 0 0" style="fill: rgb(213, 0, 41); fill-opacity: 1;"/>
      </g>
      <g transform="translate(934.283 511.2088)">
        <path d="M 0 0 L 0 35.41 L 22.866 35.41 L 22.866 34.351 L 2.837 34.351 L 2.837 18.218 L 19.517 18.218 L 19.517 17.158 L 2.837 17.158 L 2.837 1.06 L 22.866 1.06 L 22.866 0 Z" style="fill: rgb(213, 0, 41); fill-opacity: 1;"/>
      </g>
      <g transform="translate(979.9055 511.2088)">
        <path d="M 0 0 L 0 35.41 L 2.837 33.564 L 2.837 1.06 L 22.866 1.06 L 22.866 0 Z" style="fill: rgb(213, 0, 41); fill-opacity: 1;"/>
      </g>
      <g transform="translate(1043.2327 511.2088)">
        <path d="M 0 0 L -10.527 18.184 L -16.064 10.254 L -16.064 0 L -18.901 0 L -18.901 35.41 L -16.064 33.564 L -16.064 12.1 L 0.239 35.41 L 1.538 35.41 L -8.716 20.747 L 3.247 0 Z" style="fill: rgb(213, 0, 41); fill-opacity: 1;"/>
      </g>
      <g transform="translate(1082.2932 511.9949)">
        <path d="M 0 0 C 7.622 1.333 10.972 8.066 10.972 15.21 C 10.972 24.302 5.503 34.043 -3.623 34.043 C -4.375 34.043 -5.161 33.975 -5.981 33.838 C -13.569 32.505 -16.953 25.771 -16.953 18.628 C -16.953 9.536 -11.484 -0.205 -2.358 -0.205 C -1.606 -0.205 -0.82 -0.137 0 0 M -19.448 16.919 C -19.448 26.079 -13.945 35.137 -2.939 35.137 C 7.998 35.137 13.501 26.045 13.501 16.919 C 13.501 7.793 7.998 -1.333 -2.974 -1.333 C -13.945 -1.299 -19.448 7.793 -19.448 16.919" style="fill: rgb(213, 0, 41); fill-opacity: 1;"/>
      </g>
      <g transform="translate(1148.9358 511.2088)">
        <path d="M 0 0 L 0 32.71 L -13.877 0 L -15.381 0 L -29.36 32.915 L -29.36 0 L -30.42 0 L -30.42 35.41 L -27.344 35.41 L -13.672 3.213 L 0 35.41 L 2.803 35.41 L 2.803 0 Z" style="fill: rgb(213, 0, 41); fill-opacity: 1;"/>
      </g>
    </g>
    <g transform="matrix(0.15897, 0, 0, 0.15897, 0, 911.184021)" style="">
      <path d="M 0 1083.414 L 1920 1083.414 L 1920 0 L 0 0 Z" style="fill: none;"/>
    </g>
    <g style="clip-path: url(#clippath1);" transform="matrix(0.15897, 0, 0, 0.15897, 0, 911.184021)">
      <g transform="translate(1337.676 765.1378)">
        <path d="M 0 0 C -10.117 0 -18.349 -8.231 -18.349 -18.349 C -18.349 -28.466 -10.117 -36.697 0 -36.697 C 10.118 -36.697 18.35 -28.466 18.35 -18.349 C 18.35 -8.231 10.118 0 0 0 M 0 -39.697 C -11.771 -39.697 -21.349 -30.12 -21.349 -18.349 C -21.349 -6.577 -11.771 3 0 3 C 11.772 3 21.35 -6.577 21.35 -18.349 C 21.35 -30.12 11.772 -39.697 0 -39.697" style="fill: rgb(213, 0, 41); fill-opacity: 1;"/>
      </g>
    </g>
    <g style="clip-path: url(#clippath1);" transform="matrix(0.15897, 0, 0, 0.15897, 0, 911.184021)">
      <g transform="translate(1333.1494 747.9778)">
        <path d="M 0 0 L 4.48 0 C 7.592 0 8.935 1.172 8.935 3.447 C 8.935 5.607 7.526 6.83 4.758 6.83 L 0 6.83 Z M 0 -2.617 L 0 -11.824 L -3.118 -11.824 L -3.118 9.447 L 5.39 9.447 C 9.811 9.447 12.172 7.041 12.172 3.728 C 12.172 0.947 10.591 -0.704 8.647 -1.281 C 10.254 -1.732 11.78 -2.99 11.78 -6.704 L 11.78 -7.642 C 11.78 -9.101 11.727 -10.914 12.069 -11.824 L 9.021 -11.824 C 8.637 -10.905 8.645 -9.26 8.645 -7.214 L 8.645 -6.788 C 8.645 -3.892 7.84 -2.617 4.099 -2.617 Z" style="fill: rgb(213, 0, 41); fill-opacity: 1;"/>
      </g>
    </g>
  </g>
</svg>